<?xml version="1.0" encoding="UTF-8"?>
<svg version="1.1" xmlns="http://www.w3.org/2000/svg" width="512" height="512">
<path d="M0 0 C1.55692062 -0.00642769 1.55692062 -0.00642769 3.14529419 -0.01298523 C5.33562492 -0.01871456 7.52597468 -0.01923912 9.71630859 -0.01489258 C13.05209115 -0.01173599 16.3869834 -0.03519832 19.72265625 -0.06054688 C21.85676972 -0.06282047 23.99088556 -0.06352309 26.125 -0.0625 C27.1148288 -0.07170975 28.10465759 -0.08091949 29.1244812 -0.09040833 C38.02176401 -0.03151588 44.78848459 1.89395334 51.1953125 8.30078125 C54.84700261 13.78692889 54.54894764 18.83912239 54.3828125 25.17578125 C54.3209375 28.51703125 54.2590625 31.85828125 54.1953125 35.30078125 C63.4353125 35.30078125 72.6753125 35.30078125 82.1953125 35.30078125 C82.1334375 32.68140625 82.0715625 30.06203125 82.0078125 27.36328125 C81.93887214 13.09262734 81.93887214 13.09262734 86.9296875 7.28125 C94.13209999 0.4277916 101.33664461 -0.00899515 110.87890625 0 C111.89324234 -0.00428513 112.90757843 -0.00857025 113.95265198 -0.01298523 C116.08992774 -0.01870775 118.22722296 -0.01924418 120.36450195 -0.01489258 C123.61899287 -0.01173217 126.87257433 -0.03522001 130.12695312 -0.06054688 C132.21093636 -0.06282016 134.29492202 -0.06352323 136.37890625 -0.0625 C137.34372421 -0.07170975 138.30854218 -0.08091949 139.30259705 -0.09040833 C148.12007265 -0.03056569 154.85261186 1.95808061 161.1953125 8.30078125 C163.94569922 12.9479864 165.33370764 17.03262296 165.29296875 22.41015625 C165.28974609 23.16425781 165.28652344 23.91835937 165.28320312 24.6953125 C165.27482422 25.47261719 165.26644531 26.24992187 165.2578125 27.05078125 C165.25330078 27.84355469 165.24878906 28.63632813 165.24414062 29.453125 C165.23239815 31.40237633 165.21446396 33.35158863 165.1953125 35.30078125 C166.47460129 35.29411942 167.75389008 35.28745758 169.07194519 35.28059387 C181.1228839 35.21980186 193.17379154 35.17481771 205.22484875 35.14534473 C211.42055332 35.12968306 217.6161342 35.10843532 223.81176758 35.07446289 C229.7899173 35.0418878 235.76794796 35.02393202 241.74617958 35.01614952 C244.02796618 35.01060272 246.30974619 34.99977133 248.59148216 34.98359108 C251.78533429 34.96184179 254.97869326 34.95881333 258.17260742 34.96020508 C259.59033195 34.94402634 259.59033195 34.94402634 261.03669739 34.92752075 C269.5928961 34.96791508 269.5928961 34.96791508 273.1953125 38.30078125 C273.5253125 39.95078125 273.8553125 41.60078125 274.1953125 43.30078125 C281.1253125 43.30078125 288.0553125 43.30078125 295.1953125 43.30078125 C295.5253125 41.65078125 295.8553125 40.00078125 296.1953125 38.30078125 C300.39085814 34.54206867 304.90339358 34.87862964 310.23046875 34.9375 C311.54222328 34.93675224 311.54222328 34.93675224 312.88047791 34.93598938 C314.73048168 34.93832585 316.58048888 34.94802922 318.43041992 34.96459961 C321.22409454 34.98799884 324.01680034 34.98518092 326.81054688 34.97851562 C347.49993954 35.00985601 365.77551824 38.3151478 381.4453125 53.05078125 C391.90265185 64.19244546 398.34598446 78.46827981 398.34248352 93.74266052 C398.34616021 94.60261897 398.3498369 95.46257741 398.353625 96.3485952 C398.36465422 99.23557666 398.36850445 102.12252212 398.37231445 105.00952148 C398.37857985 107.07766331 398.38522672 109.14580401 398.39222717 111.21394348 C398.41326698 118.01241268 398.42363187 124.8108821 398.43359375 131.609375 C398.43764182 133.95180841 398.44175876 136.29424171 398.44594383 138.63667488 C398.46499806 149.64591169 398.47922665 160.6551418 398.4875558 171.66439193 C398.49731899 184.35880443 398.52361367 197.05304213 398.56405669 209.74739307 C398.59426249 219.56670541 398.60902906 229.38596778 398.61233681 239.20532566 C398.61468287 245.06596797 398.62358515 250.92642359 398.64879799 256.78701591 C398.67216067 262.3069175 398.67627896 267.82651059 398.66603661 273.3464489 C398.66554307 275.36476165 398.67180929 277.38309 398.68559265 279.40135574 C398.81586019 299.61900077 394.7276787 315.68553786 380.1171875 330.5703125 C368.80430356 341.14211179 355.3802372 345.79576652 340.1953125 347.30078125 C340.24171875 348.57953125 340.288125 349.85828125 340.3359375 351.17578125 C340.37348277 352.88409104 340.40987995 354.59242633 340.4453125 356.30078125 C340.47882813 357.13996094 340.51234375 357.97914063 340.546875 358.84375 C340.66272033 366.31577387 338.67870342 371.34755961 333.8828125 377.05078125 C328.50687341 381.55156747 323.21852359 384.39190971 316.12036133 384.46191406 C315.32886185 384.47152161 314.53736237 384.48112915 313.72187805 384.49102783 C312.44995857 384.49740265 312.44995857 384.49740265 311.15234375 384.50390625 C310.26931076 384.50960632 309.38627777 384.5153064 308.47648621 384.5211792 C306.6079528 384.53061608 304.73940286 384.53715797 302.87084961 384.54101562 C300.0353423 384.55068735 297.20057067 384.581709 294.36523438 384.61328125 C292.54427511 384.61981542 290.72331069 384.62506426 288.90234375 384.62890625 C288.06451859 384.64125305 287.22669342 384.65359985 286.36347961 384.6663208 C278.08469475 384.63554331 270.86595859 382.78437541 264.69921875 377.046875 C259.05358534 370.49207465 258.03656124 363.43204449 258.1328125 355.05078125 C258.13732422 354.30570312 258.14183594 353.560625 258.14648438 352.79296875 C258.15822004 350.96220485 258.176154 349.13148252 258.1953125 347.30078125 C251.04140269 347.26629056 243.8891106 347.28615627 236.73535156 347.34350586 C234.3027697 347.3566313 231.870088 347.35739305 229.4375 347.34545898 C225.93650135 347.33044245 222.43827187 347.36013834 218.9375 347.3984375 C217.31060745 347.37705467 217.31060745 347.37705467 215.65084839 347.35523987 C210.14281842 347.31391977 210.14281842 347.31391977 205.45123291 349.77853394 C204.52238688 350.96855709 203.62713515 352.18584086 202.77342033 353.43086338 C199.5589623 357.23971117 194.64782225 358.92541168 189.80429268 359.66673946 C187.24009208 359.81673598 184.70516611 359.84176368 182.13671875 359.81835938 C180.69339676 359.82887329 180.69339676 359.82887329 179.22091675 359.83959961 C176.06624792 359.85708658 172.91248915 359.84558969 169.7578125 359.83203125 C167.55020985 359.83472883 165.34260837 359.83861346 163.13500977 359.84362793 C158.51860185 359.84951041 153.90250449 359.84100014 149.28613281 359.82226562 C143.38494646 359.79947719 137.48448793 359.81260694 131.58332825 359.83655548 C127.02781749 359.85104711 122.47247773 359.84639198 117.91696167 359.83604431 C115.74176954 359.83338634 113.56656161 359.83661388 111.39138794 359.84596252 C108.34514559 359.85618343 105.3000628 359.84054918 102.25390625 359.81835938 C101.36532928 359.8264563 100.47675232 359.83455322 99.56124878 359.84289551 C93.51009718 359.76171772 88.34447154 358.61540209 83.1953125 355.30078125 C81.61720467 353.43086338 81.61720467 353.43086338 80.36669922 351.60717773 C78.53215932 349.25679362 77.63249696 348.41512983 74.7144165 347.65188599 C71.60816095 347.39581085 68.56967298 347.3574756 65.453125 347.3984375 C64.32961639 347.38614609 63.20610779 347.37385468 62.04855347 347.3611908 C58.47180709 347.32948189 54.89712299 347.34573373 51.3203125 347.36328125 C48.89060585 347.35017132 46.46091394 347.33393103 44.03125 347.31445312 C38.08563021 347.27361619 32.14098162 347.27211578 26.1953125 347.30078125 C26.20836426 348.39704834 26.22141602 349.49331543 26.23486328 350.62280273 C26.24541971 352.07665799 26.25565676 353.53051559 26.265625 354.984375 C26.2797644 356.06543518 26.2797644 356.06543518 26.29418945 357.16833496 C26.33710349 365.51988409 24.67429896 371.63508758 18.94140625 377.796875 C13.88795386 382.1494011 7.76733379 384.3830836 1.13623047 384.4777832 C0.34795868 384.49061844 -0.44031311 384.50345367 -1.25247192 384.51667786 C-2.51968582 384.52775826 -2.51968582 384.52775826 -3.8125 384.5390625 C-4.69316132 384.54713425 -5.57382263 384.55520599 -6.48117065 384.56352234 C-8.34550015 384.57733898 -10.20985469 384.58807193 -12.07421875 384.59594727 C-13.96719861 384.60743851 -15.86014679 384.62784482 -17.75292969 384.6574707 C-40.10753137 385.00712762 -40.10753137 385.00712762 -48.6796875 377.92578125 C-52.86253903 372.75872936 -55.94781306 368.62648935 -55.90234375 361.8515625 C-55.89912109 361.00400391 -55.89589844 360.15644531 -55.89257812 359.28320312 C-55.88419922 358.40212891 -55.87582031 357.52105469 -55.8671875 356.61328125 C-55.86267578 355.72060547 -55.85816406 354.82792969 -55.85351562 353.90820312 C-55.84173733 351.70566138 -55.82528914 349.50325526 -55.8046875 347.30078125 C-57.16400391 347.15382813 -57.16400391 347.15382813 -58.55078125 347.00390625 C-72.77811001 345.25748283 -72.77811001 345.25748283 -78.8046875 341.30078125 C-80.8046875 338.30078125 -80.8046875 338.30078125 -80.4296875 335.48828125 C-80.46369361 332.30476944 -80.46369361 332.30476944 -82.40234375 330.75390625 C-83.81644882 329.72834968 -85.24971673 328.72879256 -86.69921875 327.75390625 C-88.59020376 326.44881085 -90.09743731 325.14180397 -91.6796875 323.48828125 C-93.60973904 321.26077958 -93.60973904 321.26077958 -95.8046875 320.30078125 C-97.4753125 320.39359375 -97.4753125 320.39359375 -99.1796875 320.48828125 C-102.8046875 320.30078125 -102.8046875 320.30078125 -104.8671875 318.6171875 C-106.90876562 316.17634914 -108.14324617 313.95564876 -109.4296875 311.05078125 C-110.03683594 309.71273437 -110.03683594 309.71273437 -110.65625 308.34765625 C-113.20638376 301.58199525 -114.10009914 295.54075897 -114.07211304 288.37788391 C-114.07664415 287.51450777 -114.08117526 286.65113162 -114.08584368 285.76159257 C-114.09843923 282.88698612 -114.09687044 280.01257033 -114.09521484 277.13793945 C-114.10120318 275.06920632 -114.10800943 273.00047542 -114.11557007 270.93174744 C-114.1332077 265.32407712 -114.13792455 259.71646789 -114.13920164 254.10877252 C-114.14062524 250.60096814 -114.14489884 247.09317919 -114.15019608 243.58537865 C-114.16869006 231.3353108 -114.17686761 219.08528642 -114.17529297 206.83520508 C-114.17409225 195.43698256 -114.19518261 184.0389496 -114.2267803 172.64077502 C-114.25298071 162.8383595 -114.26365866 153.03600574 -114.26238215 143.2335555 C-114.26187356 137.38639767 -114.26749968 131.53940832 -114.28873825 125.69228554 C-114.30818362 120.18873167 -114.30820201 114.6855059 -114.29370499 109.18194008 C-114.2916235 107.17007973 -114.29627811 105.1581985 -114.3084259 103.14637375 C-114.42238093 82.95483954 -110.31603595 66.89461233 -95.7265625 52.03125 C-80.41080925 37.71880144 -62.24157384 34.91809701 -42.0546875 35.17578125 C-40.66406904 35.18584408 -39.27344342 35.19496402 -37.8828125 35.203125 C-34.52324931 35.2264553 -31.16406575 35.25918895 -27.8046875 35.30078125 C-27.85109375 34.02203125 -27.8975 32.74328125 -27.9453125 31.42578125 C-27.98285777 29.71747146 -28.01925495 28.00913617 -28.0546875 26.30078125 C-28.08820313 25.46160156 -28.12171875 24.62242188 -28.15625 23.7578125 C-28.26508541 16.73792875 -26.65301564 11.66935197 -22.09375 6.27734375 C-21.54460937 5.83132812 -20.99546875 5.3853125 -20.4296875 4.92578125 C-19.88570313 4.46429688 -19.34171875 4.0028125 -18.78125 3.52734375 C-12.83220741 -0.16435462 -6.7664997 -0.00620503 0 0 Z " fill="#8DAEE1" transform="translate(113.8046875,89.69921875)"/>
<path d="M0 0 C0.9863806 -0.00307895 0.9863806 -0.00307895 1.99268809 -0.0062201 C4.21765098 -0.01191833 6.44255253 -0.0104294 8.66752148 -0.00901413 C10.2702322 -0.01159615 11.87294227 -0.01460885 13.47565144 -0.01801753 C17.89669511 -0.02610995 22.31772256 -0.02787835 26.73877275 -0.028615 C31.50030002 -0.03046167 36.2618188 -0.03800703 41.02334118 -0.04475021 C51.44264651 -0.05834991 61.861948 -0.06436078 72.28126073 -0.06876087 C78.78303341 -0.0715205 85.2848046 -0.07575733 91.78657627 -0.08026505 C109.77632364 -0.09245979 127.76606981 -0.10275874 145.75582123 -0.10614014 C146.90789395 -0.1063597 148.05996668 -0.10657927 149.2469507 -0.10680549 C150.40183197 -0.10702377 151.55671324 -0.10724204 152.74659091 -0.10746694 C155.08694891 -0.10791041 157.42730691 -0.10835697 159.76766491 -0.10880661 C161.5090248 -0.10913875 161.5090248 -0.10913875 163.28556367 -0.10947761 C182.10290183 -0.11342691 200.92020128 -0.13088404 219.73752449 -0.15416613 C239.04161533 -0.17785835 258.34568675 -0.19034101 277.64979237 -0.19150805 C288.494543 -0.19242601 299.33924322 -0.19820855 310.18397999 -0.21632767 C319.41743254 -0.23169994 328.65081912 -0.23686615 337.88428203 -0.22858956 C342.59776029 -0.22467286 347.31110556 -0.22566221 352.0245676 -0.23964691 C356.33692973 -0.25232488 360.64905809 -0.2512424 364.9614196 -0.2390562 C366.52402477 -0.23708856 368.08664616 -0.24022652 369.64922849 -0.24890056 C371.76907324 -0.25992583 373.88808315 -0.25255368 376.00790405 -0.24050903 C377.18661097 -0.24110612 378.36531789 -0.24170321 379.57974321 -0.24231839 C384.4087745 0.33745963 386.88052882 2.16866657 389.97346783 5.83502579 C391.96104092 9.64590581 392.25394429 12.67997098 392.20064831 16.87385941 C392.21000825 18.01451025 392.21000825 18.01451025 392.21955729 19.17820454 C392.23546226 21.71631678 392.22289337 24.25346531 392.21029186 26.79158401 C392.21571411 28.61522861 392.22283734 30.43886883 392.2315321 32.26250076 C392.24975619 37.20878098 392.24270166 42.15472719 392.23001575 47.10101318 C392.21988339 52.27921061 392.2292821 57.45737959 392.23556042 62.63557816 C392.24283612 71.33118698 392.2332511 80.02665989 392.21419811 88.72224808 C392.19242955 98.77321548 392.19948098 108.82385831 392.22150373 118.87481785 C392.23965989 127.50683653 392.24221499 136.13875754 392.23174906 144.77078915 C392.22551533 149.92524599 392.22467523 155.07955032 392.23789501 160.23399734 C392.24945598 165.08011049 392.24142318 169.92580547 392.21831799 174.77187347 C392.21303223 176.54961452 392.21454241 178.3273908 392.22336864 180.1051178 C392.23431329 182.53355112 392.22057483 184.96064779 392.20064831 187.38899612 C392.21403264 188.44221605 392.21403264 188.44221605 392.22768736 189.51671314 C392.14849035 194.49857278 390.88820244 197.34350649 387.69271374 201.13142776 C384.15246808 203.8555714 381.60160535 204.5077908 377.1763258 204.51910782 C376.07994793 204.52901245 374.98357006 204.53891708 373.85396862 204.54912186 C372.66106213 204.54462021 371.46815563 204.54011856 370.23910046 204.5354805 C368.97522503 204.54234375 367.7113496 204.549207 366.40917492 204.55627823 C362.95062838 204.57419548 359.49233572 204.57304469 356.03375673 204.56733584 C353.14581863 204.56424351 350.25792926 204.57033656 347.3699981 204.57637459 C340.55939712 204.59041194 333.74892162 204.58886367 326.93831921 204.57747269 C319.9098062 204.56597714 312.88167412 204.5800927 305.85321128 204.60686916 C299.8174174 204.62900363 293.78174331 204.63566912 287.74591172 204.62979275 C284.14136413 204.62641833 280.53706106 204.62887068 276.93254757 204.64604378 C272.91729735 204.66434025 268.90279282 204.65034943 264.88753796 204.63313675 C263.09210552 204.6476387 263.09210552 204.6476387 261.26040173 204.66243362 C260.16966351 204.65259949 259.07892529 204.64276535 257.95513439 204.63263321 C256.53102654 204.63231928 256.53102654 204.63231928 255.07814884 204.63199902 C252.69271374 204.13142776 252.69271374 204.13142776 250.86381245 202.22510242 C249.69271374 200.13142776 249.69271374 200.13142776 249.69271374 198.13142776 C242.28990368 194.12157232 236.07926644 192.68294224 227.76351452 192.69563675 C226.32282101 192.68052299 226.32282101 192.68052299 224.85302258 192.66510391 C221.69790336 192.63675433 218.54326466 192.63075415 215.38802624 192.62752151 C213.18138976 192.61787229 210.97475519 192.60777921 208.76812267 192.59726334 C204.15000492 192.5793351 199.53205523 192.573739 194.91390514 192.57551956 C189.01371452 192.57582442 183.11460705 192.53485128 177.21467304 192.48320293 C172.65912513 192.44975194 168.1038368 192.44376465 163.54817867 192.44534874 C161.37377593 192.44182271 159.19936546 192.42863249 157.0250845 192.40535164 C142.46996234 191.86444847 142.46996234 191.86444847 129.37969494 197.35495377 C127.54467845 199.11244254 127.54467845 199.11244254 126.41813087 201.702775 C124.69271374 204.13142776 124.69271374 204.13142776 122.29445457 204.76063347 C121.33897382 204.7625186 120.38349306 204.76440372 119.39905834 204.76634598 C118.30135113 204.7804451 117.20364391 204.79454422 116.07267284 204.80907059 C114.86793819 204.79894943 113.66320354 204.78882828 112.42196178 204.77840042 C110.51918468 204.79154282 110.51918468 204.79154282 108.57796764 204.80495071 C105.0962063 204.82777026 101.6151847 204.81889584 98.13341022 204.80305529 C94.48867302 204.79040141 90.84399943 204.80213571 87.19925976 204.80998611 C81.07497316 204.81908773 74.95098781 204.8070853 68.82674694 204.78328323 C61.75278975 204.75610698 54.67955387 204.7648579 47.60561436 204.79241526 C41.52986387 204.81513459 35.4543301 204.81829165 29.37855083 204.80522192 C25.75093515 204.79743806 22.12365794 204.79635522 18.49606419 204.81290436 C14.44749471 204.83008262 10.40015933 204.80624789 6.35164928 204.77840042 C5.15298733 204.78852158 3.95432537 204.79864273 2.71934032 204.80907059 C-6.33902636 204.6936133 -6.33902636 204.6936133 -9.97346973 201.84099197 C-14.02675389 197.13512348 -14.60310015 193.72534475 -14.58817005 187.59827042 C-14.5941123 186.83616739 -14.60005454 186.07406436 -14.60617685 185.28886729 C-14.62353012 182.73333193 -14.62656548 180.17798418 -14.62955189 177.62239456 C-14.63880968 175.79081701 -14.6488592 173.95924331 -14.65964222 172.1276741 C-14.68587938 167.15032844 -14.6987778 162.17303671 -14.70766354 157.1956327 C-14.71352636 154.08589881 -14.7217362 150.97617965 -14.73067188 147.86645317 C-14.75801804 138.13653783 -14.77735355 128.40665617 -14.78507566 118.67670506 C-14.79403855 107.44517283 -14.82914304 96.21412722 -14.88707685 84.98274297 C-14.93030633 76.30066133 -14.95048396 67.61871663 -14.9531579 58.9365285 C-14.95525418 53.75113361 -14.96707233 48.56619627 -15.00279713 43.38091469 C-15.03575267 38.50272578 -15.04007374 33.6253385 -15.02251911 28.74707794 C-15.02097801 26.95844183 -15.02966911 25.16976267 -15.04943562 23.38123512 C-15.2075685 8.17939027 -15.2075685 8.17939027 -11.3877306 3.57535172 C-7.12084333 0.19014268 -5.38405383 0.00569606 0 0 Z " fill="#8DE1E0" transform="translate(67.3072862625122,178.86857223510742)"/>
<path d="M0 0 C0.87874786 -0.0033284 1.75749573 -0.0066568 2.66287231 -0.01008606 C4.53077674 -0.01515835 6.39869026 -0.01749429 8.26660156 -0.01733398 C11.08674776 -0.01949594 13.90648686 -0.03757937 16.7265625 -0.05664062 C37.50005853 -0.12362624 55.76262355 3.1114353 71.5078125 17.91796875 C81.96515185 29.05963296 88.40848446 43.33546731 88.40498352 58.60984802 C88.40866021 59.46980647 88.4123369 60.32976491 88.416125 61.2157827 C88.42715422 64.10276416 88.43100445 66.98970962 88.43481445 69.87670898 C88.44107985 71.94485081 88.44772672 74.01299151 88.45472717 76.08113098 C88.47576698 82.87960018 88.48613187 89.6780696 88.49609375 96.4765625 C88.50014182 98.81899591 88.50425876 101.16142921 88.50844383 103.50386238 C88.52749806 114.51309919 88.54172665 125.5223293 88.5500558 136.53157943 C88.55981899 149.22599193 88.58611367 161.92022963 88.62655669 174.61458057 C88.65676249 184.43389291 88.67152906 194.25315528 88.67483681 204.07251316 C88.67718287 209.93315547 88.68608515 215.79361109 88.71129799 221.65420341 C88.73466067 227.174105 88.73877896 232.69369809 88.72853661 238.2136364 C88.72804307 240.23194915 88.73430929 242.2502775 88.74809265 244.26854324 C88.87836019 264.48618827 84.7901787 280.55272536 70.1796875 295.4375 C58.86680356 306.00929929 45.4427372 310.66295402 30.2578125 312.16796875 C30.30421875 313.44671875 30.350625 314.72546875 30.3984375 316.04296875 C30.43598277 317.75127854 30.47237995 319.45961383 30.5078125 321.16796875 C30.54132813 322.00714844 30.57484375 322.84632813 30.609375 323.7109375 C30.72522033 331.18296137 28.74120342 336.21474711 23.9453125 341.91796875 C18.56937341 346.41875497 13.28102359 349.25909721 6.18286133 349.32910156 C5.39136185 349.33870911 4.59986237 349.34831665 3.78437805 349.35821533 C2.51245857 349.36459015 2.51245857 349.36459015 1.21484375 349.37109375 C0.33181076 349.37679382 -0.55122223 349.3824939 -1.46101379 349.3883667 C-3.3295472 349.39780358 -5.19809714 349.40434547 -7.06665039 349.40820312 C-9.9021577 349.41787485 -12.73692933 349.4488965 -15.57226562 349.48046875 C-17.39322489 349.48700292 -19.21418931 349.49225176 -21.03515625 349.49609375 C-21.87298141 349.50844055 -22.71080658 349.52078735 -23.57402039 349.5335083 C-31.85280525 349.50273081 -39.07154141 347.65156291 -45.23828125 341.9140625 C-50.88391466 335.35926215 -51.90093876 328.29923199 -51.8046875 319.91796875 C-51.80017578 319.17289062 -51.79566406 318.4278125 -51.79101562 317.66015625 C-51.77927996 315.82939235 -51.761346 313.99867002 -51.7421875 312.16796875 C-58.89609731 312.13347806 -66.0483894 312.15334377 -73.20214844 312.21069336 C-75.6347303 312.2238188 -78.067412 312.22458055 -80.5 312.21264648 C-84.00099865 312.19762995 -87.49922813 312.22732584 -91 312.265625 C-92.62689255 312.24424217 -92.62689255 312.24424217 -94.28665161 312.22242737 C-99.79468158 312.18110727 -99.79468158 312.18110727 -104.48626709 314.64572144 C-105.41511312 315.83574459 -106.31036485 317.05302836 -107.16407967 318.29805088 C-110.3785377 322.10689867 -115.28967775 323.79259918 -120.13320732 324.53392696 C-122.69740792 324.68392348 -125.23233389 324.70895118 -127.80078125 324.68554688 C-129.24410324 324.69606079 -129.24410324 324.69606079 -130.71658325 324.70678711 C-133.87125208 324.72427408 -137.02501085 324.71277719 -140.1796875 324.69921875 C-142.38729015 324.70191633 -144.59489163 324.70580096 -146.80249023 324.71081543 C-151.41889815 324.71669791 -156.03499551 324.70818764 -160.65136719 324.68945312 C-166.55255354 324.66666469 -172.45301207 324.67979444 -178.35417175 324.70374298 C-182.90968251 324.71823461 -187.46502227 324.71357948 -192.02053833 324.70323181 C-194.19573046 324.70057384 -196.37093839 324.70380138 -198.54611206 324.71315002 C-201.59235441 324.72337093 -204.6374372 324.70773668 -207.68359375 324.68554688 C-208.57217072 324.6936438 -209.46074768 324.70174072 -210.37625122 324.71008301 C-216.42740282 324.62890522 -221.59302846 323.48258959 -226.7421875 320.16796875 C-228.32029533 318.29805088 -228.32029533 318.29805088 -229.57080078 316.47436523 C-231.40534068 314.12398112 -232.30500304 313.28231733 -235.2230835 312.51907349 C-238.32933905 312.26299835 -241.36782702 312.2246631 -244.484375 312.265625 C-245.60788361 312.25333359 -246.73139221 312.24104218 -247.88894653 312.2283783 C-251.46569291 312.19666939 -255.04037701 312.21292123 -258.6171875 312.23046875 C-261.04689415 312.21735882 -263.47658606 312.20111853 -265.90625 312.18164062 C-271.85186979 312.14080369 -277.79651838 312.13930328 -283.7421875 312.16796875 C-283.72913574 313.26423584 -283.71608398 314.36050293 -283.70263672 315.48999023 C-283.69208029 316.94384549 -283.68184324 318.39770309 -283.671875 319.8515625 C-283.6577356 320.93262268 -283.6577356 320.93262268 -283.64331055 322.03552246 C-283.60039651 330.38707159 -285.26320104 336.50227508 -290.99609375 342.6640625 C-296.04954614 347.0165886 -302.17016621 349.2502711 -308.80126953 349.3449707 C-309.58954132 349.35780594 -310.37781311 349.37064117 -311.18997192 349.38386536 C-312.45718582 349.39494576 -312.45718582 349.39494576 -313.75 349.40625 C-314.63066132 349.41432175 -315.51132263 349.42239349 -316.41867065 349.43070984 C-318.28300015 349.44452648 -320.14735469 349.45525943 -322.01171875 349.46313477 C-323.90469861 349.47462601 -325.79764679 349.49503232 -327.69042969 349.5246582 C-350.04503137 349.87431512 -350.04503137 349.87431512 -358.6171875 342.79296875 C-362.80003903 337.62591686 -365.88531306 333.49367685 -365.83984375 326.71875 C-365.83662109 325.87119141 -365.83339844 325.02363281 -365.83007812 324.15039062 C-365.82169922 323.26931641 -365.81332031 322.38824219 -365.8046875 321.48046875 C-365.80017578 320.58779297 -365.79566406 319.69511719 -365.79101562 318.77539062 C-365.77923733 316.57284888 -365.76278914 314.37044276 -365.7421875 312.16796875 C-367.10150391 312.02101563 -367.10150391 312.02101563 -368.48828125 311.87109375 C-382.71561001 310.12467033 -382.71561001 310.12467033 -388.7421875 306.16796875 C-390.92256845 302.89739732 -391.37465505 301.96277406 -390.7421875 298.16796875 C-388.6796875 295.35546875 -388.6796875 295.35546875 -385.7421875 293.16796875 C-381.9873081 292.69007501 -379.45517427 292.91532231 -375.89206505 294.17790794 C-372.66621127 295.19184939 -370.15040306 295.42803315 -366.78164673 295.44644165 C-365.02754486 295.46318687 -365.02754486 295.46318687 -363.23800659 295.48027039 C-361.96917633 295.48243057 -360.70034607 295.48459076 -359.39306641 295.48681641 C-358.03258676 295.49612259 -356.67211279 295.50629229 -355.31164551 295.51725769 C-351.63031204 295.54449404 -347.9490167 295.55968813 -344.26760912 295.57268572 C-340.4158597 295.5883442 -336.56418782 295.61512573 -332.7124939 295.64071655 C-325.42411688 295.68745631 -318.13572519 295.72422362 -310.84727514 295.75738943 C-302.54736686 295.7956448 -294.24753655 295.845046 -285.94769406 295.89537358 C-268.87924738 295.99862198 -251.81075628 296.08751004 -234.7421875 296.16796875 C-234.7421875 288.57796875 -234.7421875 280.98796875 -234.7421875 273.16796875 C-236.34863129 273.17907181 -237.95507507 273.19017487 -239.61019897 273.20161438 C-254.76467375 273.30306368 -269.91902333 273.37827046 -285.07375145 273.42702961 C-292.86457371 273.45276451 -300.65514174 273.48782408 -308.44580078 273.54516602 C-315.23954179 273.59514627 -322.03309861 273.62729401 -328.82701838 273.63841122 C-332.42138334 273.64490548 -336.01522155 273.66006834 -339.60941696 273.69661903 C-343.63095794 273.73718035 -347.65159473 273.73790888 -351.67333984 273.7355957 C-352.85298309 273.75357208 -354.03262634 273.77154846 -355.24801636 273.79006958 C-364.22608119 273.73435464 -370.73524228 271.56516144 -377.6171875 265.73046875 C-383.57498682 258.54606368 -386.0477009 252.59686283 -386.01634216 243.26263428 C-386.02157884 242.48460489 -386.02681552 241.70657549 -386.03221089 240.90496945 C-386.04716905 238.30736198 -386.04791511 235.70995221 -386.04858398 233.11230469 C-386.05620832 231.24589202 -386.06463629 229.37948249 -386.07380676 227.51307678 C-386.09573238 222.44886647 -386.10454814 217.38471654 -386.10963321 212.32046413 C-386.11327925 209.1540779 -386.11952063 205.98770743 -386.1266346 202.82132721 C-386.15112297 191.76775927 -386.16417954 180.71423821 -386.16772461 169.66064453 C-386.17135875 159.36888988 -386.20124711 149.07743365 -386.24312919 138.78577018 C-386.27785877 129.94054514 -386.29327352 121.09541887 -386.29397064 112.25012612 C-386.29476258 106.97139219 -386.30346317 101.6929623 -386.33196831 96.41429901 C-386.35819434 91.44668055 -386.36032875 86.47961724 -386.34431267 81.51196098 C-386.34250176 79.6939542 -386.34915643 77.87591517 -386.36513138 76.05797768 C-386.46170892 64.34893734 -385.64214888 55.33341608 -377.4921875 46.29296875 C-368.87764182 38.67692725 -359.81980813 38.59178078 -348.80738831 38.66003418 C-347.1856955 38.65542113 -345.56400689 38.6490655 -343.94232696 38.6411252 C-339.50103418 38.62446402 -335.06008626 38.6326636 -330.61879241 38.64507008 C-325.82319002 38.65413148 -321.02764634 38.64014537 -316.23205566 38.62915039 C-306.8431348 38.61137184 -297.45434191 38.61520233 -288.06541605 38.62680095 C-280.43364964 38.63583814 -272.80191907 38.63705803 -265.17014885 38.63270569 C-264.08353852 38.63209276 -262.99692819 38.63147982 -261.87739028 38.63084832 C-259.66988038 38.6295694 -257.4623705 38.62827255 -255.25486063 38.62695795 C-234.55876466 38.61555396 -213.86273958 38.62866276 -193.16665523 38.65015942 C-175.41437202 38.6680277 -157.66219344 38.66492814 -139.90991211 38.64648438 C-119.28892082 38.62507015 -98.66799167 38.61665523 -78.04699081 38.62893343 C-75.84734119 38.63020761 -73.64769156 38.63146509 -71.44804192 38.63270569 C-70.36580859 38.63332279 -69.28357527 38.63393989 -68.16854699 38.63457569 C-60.5478156 38.63802712 -52.92712367 38.63220466 -45.30639839 38.62278748 C-36.01650024 38.61155989 -26.72673725 38.61462348 -17.43685455 38.63591045 C-12.69837901 38.64641096 -7.96012869 38.65055972 -3.22165489 38.63731384 C1.11914207 38.62536332 5.45950579 38.6319962 9.80026365 38.65322405 C11.3674526 38.65767889 12.93467842 38.65544904 14.5018435 38.6457209 C24.2866136 38.58965867 32.63517595 39.20154689 40.84375 44.9921875 C41.72933594 45.91451172 41.72933594 45.91451172 42.6328125 46.85546875 C43.23867188 47.45746094 43.84453125 48.05945313 44.46875 48.6796875 C51.19888304 58.04015638 50.82953483 67.4707367 50.77539062 78.56420898 C50.78081658 80.43106633 50.7879419 82.29791939 50.79663086 84.1647644 C50.814812 89.21650219 50.80781786 94.26791192 50.79511452 99.31965518 C50.78495833 104.61741413 50.7943876 109.91514578 50.80065918 115.21290588 C50.80792859 124.1091921 50.79836705 133.00534532 50.77929688 141.90161133 C50.75753624 152.17125376 50.76457655 162.44057841 50.7866025 172.71021312 C50.80478458 181.54277711 50.80730089 190.37524572 50.79684782 199.20782238 C50.79062747 204.47637929 50.78973691 209.74478709 50.80299377 215.01333427 C50.8145923 219.96865885 50.80645358 224.92357587 50.78341675 229.87885666 C50.77815071 231.6920091 50.77960716 233.50519614 50.78846741 235.31833458 C50.8347994 245.76706959 50.6740369 254.9077106 44.43359375 263.75390625 C43.51126953 264.63949219 43.51126953 264.63949219 42.5703125 265.54296875 C41.96832031 266.14882813 41.36632812 266.7546875 40.74609375 267.37890625 C32.91473453 273.00961665 25.78006858 273.73726098 16.30249023 273.62207031 C15.03321182 273.62265442 13.76393341 273.62323853 12.45619202 273.62384033 C9.00205823 273.6249804 5.54848859 273.60158749 2.09448504 273.5735445 C-1.52494721 273.54841155 -5.1443947 273.54617954 -8.76390076 273.54144287 C-15.60608963 273.5290478 -22.44802055 273.49627372 -29.29009622 273.45604491 C-37.08455782 273.41121861 -44.87903222 273.38931298 -52.67359078 273.36926317 C-68.69661123 273.32753754 -84.71935617 273.25644086 -100.7421875 273.16796875 C-100.7421875 280.75796875 -100.7421875 288.34796875 -100.7421875 296.16796875 C-83.21709641 296.12987484 -65.69225486 296.0707189 -48.16733932 295.98406601 C-40.02919966 295.94434979 -31.89115566 295.9119198 -23.75292969 295.89697266 C-16.65508687 295.88391749 -9.5574552 295.85685501 -2.45973134 295.81335568 C1.29437654 295.79082714 5.04822485 295.77505285 8.80240631 295.7760849 C12.34515224 295.77683666 15.88732627 295.75868217 19.42992401 295.72680092 C21.33125338 295.71438866 23.23267925 295.72132557 25.1340332 295.72911072 C37.93075855 295.57573786 49.73977671 291.79995033 59.4453125 283.23828125 C69.21110601 273.13956296 72.4082909 261.36291664 72.40498352 247.69354248 C72.41049855 246.45277116 72.41049855 246.45277116 72.416125 245.18693376 C72.42709421 242.42897806 72.43099408 239.67106012 72.43481445 236.91308594 C72.44108409 234.92992536 72.44773133 232.94676594 72.45472717 230.96360779 C72.47570608 224.464028 72.48612209 217.96444814 72.49609375 211.46484375 C72.50014326 209.22296385 72.50426024 206.98108406 72.50844383 204.73920441 C72.52747998 194.20732086 72.54171571 183.67544425 72.5500558 173.14354682 C72.55983011 161.00267597 72.58616145 148.86198733 72.62655669 136.72118068 C72.65674407 127.32476549 72.67152707 117.92840248 72.67483681 108.53193974 C72.67718376 102.92514905 72.68609863 97.31855339 72.71129799 91.71181488 C72.73463032 86.43564596 72.73879112 81.15979981 72.72853661 75.88359261 C72.72804244 73.95312741 72.73432758 72.02264603 72.74809265 70.09222984 C72.85068658 54.84494669 70.88193849 41.76904652 60.2578125 29.94140625 C49.77828091 19.94842434 37.20339719 16.87859612 23.11328125 16.89453125 C21.20116576 16.87426684 19.28905641 16.85341658 17.37695312 16.83203125 C14.39683776 16.80934064 11.41696575 16.79291354 8.43676758 16.78710938 C5.53683939 16.77761153 2.63797225 16.743903 -0.26171875 16.70703125 C-1.59925957 16.71459946 -1.59925957 16.71459946 -2.96382141 16.72232056 C-9.10598935 16.62435175 -9.10598935 16.62435175 -12.2722168 14.35302734 C-14.36730382 11.23875582 -14.7421875 8.90202961 -14.7421875 5.16796875 C-10.57163076 -0.29689871 -6.43840144 0.00844052 0 0 Z M-368.7421875 59.16796875 C-371.15338904 62.78477106 -371.02771667 65.40962426 -371.00961304 69.58760071 C-371.01414415 70.34955488 -371.01867526 71.11150905 -371.02334368 71.89655274 C-371.03603479 74.45754485 -371.03436429 77.01832557 -371.03271484 79.5793457 C-371.03869721 81.412397 -371.04550208 83.24544577 -371.05307007 85.07849121 C-371.07076829 90.06410804 -371.07542709 95.04965625 -371.07670164 100.03530145 C-371.07859889 104.19533332 -371.08595453 108.35534914 -371.09304583 112.51537484 C-371.10934238 122.33016373 -371.11421368 132.14491593 -371.11279297 141.9597168 C-371.11159161 152.08728484 -371.13268934 162.21463974 -371.1642803 172.34215385 C-371.19042635 181.0335415 -371.20116095 189.72485948 -371.19988215 198.41628617 C-371.19937197 203.60881579 -371.20508603 208.80115613 -371.22623825 213.99364662 C-371.24559213 218.87826116 -371.2457646 223.76250533 -371.23120499 228.64713287 C-371.22911215 230.43939695 -371.23384598 232.23168403 -371.2459259 234.02390862 C-371.26135795 236.47217034 -371.25208461 238.9191518 -371.23666382 241.36738586 C-371.24695094 242.07546979 -371.25723807 242.78355371 -371.26783693 243.51309472 C-371.19827838 248.51574848 -369.89656061 251.33005663 -366.7421875 255.16796875 C-363.66855824 258.14369971 -361.54390415 258.54689349 -357.31481934 258.56910706 C-356.21284714 258.58190201 -355.11087494 258.59469696 -353.97550964 258.60787964 C-352.77122818 258.60652008 -351.56694672 258.60516052 -350.32617188 258.60375977 C-348.41835686 258.61887352 -348.41835686 258.61887352 -346.47200012 258.6342926 C-342.98649902 258.66077526 -339.50121889 258.66782515 -336.01562691 258.66973996 C-333.83792449 258.67187305 -331.66027819 258.67827882 -329.48258972 258.68623161 C-321.88532952 258.71397597 -314.28822716 258.72623787 -306.69091797 258.72387695 C-299.60833994 258.72207329 -292.52644645 258.75375691 -285.44404173 258.80110794 C-279.36238741 258.84031983 -273.28095705 258.85642938 -267.19917727 258.85451072 C-263.56704411 258.8537455 -259.93551982 258.8623118 -256.30351257 258.89404488 C-252.25459864 258.92845627 -248.20722251 258.91485867 -244.15820312 258.89672852 C-242.95392166 258.91358704 -241.7496402 258.93044556 -240.50886536 258.94781494 C-237.4707363 258.91312242 -234.70668308 258.83381907 -231.7421875 258.16796875 C-229.41933914 255.46695364 -229.41933914 255.46695364 -227.7421875 252.16796875 C-221.78151344 247.41934678 -216.09614589 246.44205057 -208.66772461 246.55273438 C-207.70390366 246.54718536 -206.7400827 246.54163635 -205.74705505 246.53591919 C-202.58736143 246.52418797 -199.42912277 246.54833079 -196.26953125 246.57421875 C-194.05953537 246.57593154 -191.84953746 246.57586246 -189.63954163 246.57409668 C-185.0188541 246.57574618 -180.39865392 246.59437816 -175.77807617 246.62597656 C-169.86789849 246.66567566 -163.95835761 246.67001658 -158.04807186 246.66251373 C-153.48830882 246.65943833 -148.92868781 246.67158455 -144.36895943 246.68864441 C-142.19015964 246.6956538 -140.01134377 246.69880145 -137.83253288 246.69795227 C-134.78381346 246.6997583 -131.73584474 246.72120871 -128.68725586 246.74804688 C-127.79508362 246.74511627 -126.90291138 246.74218567 -125.98370361 246.73916626 C-120.2416904 246.81680525 -116.01512074 247.87699393 -110.7421875 250.16796875 C-109.9584375 250.47734375 -109.1746875 250.78671875 -108.3671875 251.10546875 C-106.26351268 252.48094844 -105.67690967 253.86711418 -104.7421875 256.16796875 C-104.4121875 256.82796875 -104.0821875 257.48796875 -103.7421875 258.16796875 C-86.87866818 258.23805545 -70.01519434 258.29095522 -53.15156269 258.32340527 C-45.32145125 258.33887298 -37.49143031 258.35996063 -29.66137695 258.39428711 C-22.8365554 258.42419245 -16.0117994 258.44354445 -9.18691415 258.45023423 C-5.57329614 258.45414459 -1.95986565 258.46333232 1.65369225 258.48515892 C5.68807666 258.50932965 9.72213522 258.50993802 13.7565918 258.50854492 C14.95421143 258.51933075 16.15183105 258.53011658 17.38574219 258.54122925 C18.48645554 258.53710526 19.58716888 258.53298126 20.72123718 258.5287323 C21.67529292 258.53149768 22.62934866 258.53426306 23.61231518 258.53711224 C28.23644605 257.89187711 30.56349418 255.99101128 33.53856659 252.46437073 C35.52613969 248.65349071 35.81904305 245.61942553 35.76574707 241.42553711 C35.77510701 240.28488627 35.77510701 240.28488627 35.78465605 239.12119198 C35.80056102 236.58307973 35.78799213 234.0459312 35.77539062 231.5078125 C35.78081287 229.6841679 35.7879361 227.86052768 35.79663086 226.03689575 C35.81485495 221.09061554 35.80780042 216.14466933 35.79511452 211.19838333 C35.78498215 206.0201859 35.79438086 200.84201692 35.80065918 195.66381836 C35.80793488 186.96820953 35.79834987 178.27273663 35.77929688 169.57714844 C35.75752832 159.52618104 35.76457974 149.4755382 35.7866025 139.42457867 C35.80475865 130.79255999 35.80731375 122.16063897 35.79684782 113.52860737 C35.79061409 108.37415052 35.78977399 103.2198462 35.80299377 98.06539917 C35.81455474 93.21928603 35.80652194 88.37359105 35.78341675 83.52752304 C35.77813099 81.74978199 35.77964117 79.97200571 35.78846741 78.19427872 C35.79941206 75.76584539 35.78567359 73.33874873 35.76574707 70.91040039 C35.77466996 70.20825377 35.78359284 69.50610716 35.79278612 68.78268337 C35.71358911 63.80082374 34.4533012 60.95589003 31.2578125 57.16796875 C27.30025649 54.24257596 24.46223224 53.79137308 19.58417606 53.7848587 C18.92342706 53.77989919 18.26267805 53.77493967 17.58190635 53.76982987 C15.3640658 53.75685891 13.14682584 53.76526279 10.92897034 53.77355957 C9.32437952 53.76867137 7.71979224 53.76248189 6.11521095 53.75510168 C1.7028264 53.73867015 -2.70937985 53.7410266 -7.12178433 53.74647665 C-11.87920595 53.74914287 -16.63657961 53.73462277 -21.39398193 53.72238159 C-30.71523856 53.70130861 -40.03643302 53.69678779 -49.35771065 53.69856948 C-56.93239588 53.69987609 -64.50706167 53.69607813 -72.08174324 53.68864441 C-74.26197133 53.68654526 -76.44219943 53.68444766 -78.62242752 53.68235159 C-79.70751648 53.68130806 -80.79260543 53.68026453 -81.91057587 53.67918938 C-102.4405569 53.6602797 -122.97050222 53.66133953 -143.50048835 53.66815871 C-162.29113227 53.67373555 -181.08163991 53.652904 -199.87225198 53.61979824 C-219.15724264 53.58608461 -238.44216796 53.57088995 -257.72718865 53.57551527 C-268.55798263 53.57776221 -279.38865063 53.57248394 -290.21941948 53.54762268 C-299.43927337 53.52663969 -308.65893219 53.52298776 -317.87879401 53.54192227 C-322.58439692 53.5510984 -327.28963581 53.55216585 -331.99521065 53.53156662 C-336.30148909 53.51292352 -340.60710368 53.51728461 -344.91335631 53.54011244 C-346.4725236 53.54431512 -348.03174113 53.54004236 -349.59085541 53.5265165 C-360.40256403 53.14161442 -360.40256403 53.14161442 -368.7421875 59.16796875 Z " fill="#010101" transform="translate(423.7421875,124.83203125)"/>
<path d="M0 0 C0.82934555 -0.00014603 1.6586911 -0.00029205 2.51316833 -0.0004425 C5.2618977 0.00025568 8.01055978 0.00804368 10.75927734 0.01586914 C12.66213952 0.01773366 14.56500217 0.0191574 16.46786499 0.02015686 C21.4820284 0.0239794 26.49616295 0.03380746 31.51031494 0.04486084 C36.62454844 0.0550806 41.73878659 0.0596557 46.85302734 0.06469727 C56.89210458 0.07542995 66.9311528 0.09302464 76.97021484 0.11352539 C76.97021484 9.02352539 76.97021484 17.93352539 76.97021484 27.11352539 C81.26021484 27.11352539 85.55021484 27.11352539 89.97021484 27.11352539 C94.97021484 31.11352539 94.97021484 31.11352539 95.47192383 34.89746094 C95.18984506 39.1495236 93.78191668 42.76387007 91.94287109 46.57055664 C91.63449814 47.24019943 91.32612518 47.90984222 91.00840759 48.59977722 C90.03059074 50.71542237 89.03241411 52.82064571 88.03271484 54.92602539 C87.04144605 57.05127296 86.05438359 59.17843683 85.06773376 61.30583191 C84.4548742 62.6230844 83.83845071 63.93868614 83.21803284 65.25239563 C78.17587224 75.95148185 79.88976431 87.37170862 80.78271484 98.92602539 C80.91528687 100.66601807 80.91528687 100.66601807 81.05053711 102.44116211 C82.43589077 119.77989476 84.55861641 137.05184898 87.97021484 154.11352539 C88.1374707 154.95641113 88.30472656 155.79929687 88.47705078 156.66772461 C91.42217593 171.30672902 95.20136489 185.63152276 99.40698242 199.95654297 C99.97021484 202.11352539 99.97021484 202.11352539 99.97021484 204.11352539 C85.99249205 204.23042989 72.01484528 204.31821549 58.03673363 204.37258625 C51.54612652 204.39868138 45.0558478 204.43407923 38.56542969 204.49072266 C32.3019653 204.54504341 26.03881681 204.57494656 19.77513504 204.58791161 C17.38529105 204.59715121 14.99546438 204.61519398 12.60575485 204.64217567 C9.25859954 204.67846517 5.91275003 204.68347054 2.56542969 204.68115234 C1.08296753 204.70811691 1.08296753 204.70811691 -0.42944336 204.73562622 C-4.83001416 204.70264115 -8.02594034 204.61256412 -11.56698608 201.82804871 C-15.79294425 197.1701527 -16.32574368 193.76680054 -16.31066895 187.58036804 C-16.31661119 186.81826501 -16.32255343 186.05616198 -16.32867575 185.27096492 C-16.34602901 182.71542956 -16.34906438 180.1600818 -16.35205078 177.60449219 C-16.36130858 175.77291463 -16.37135809 173.94134094 -16.38214111 172.10977173 C-16.40837827 167.13242606 -16.42127669 162.15513434 -16.43016243 157.17773032 C-16.43602525 154.06799643 -16.44423509 150.95827727 -16.45317078 147.8485508 C-16.48051694 138.11863546 -16.49985245 128.3887538 -16.50757456 118.65880269 C-16.51653744 107.42727045 -16.55164193 96.19622485 -16.60957575 84.96484059 C-16.65280523 76.28275895 -16.67298285 67.60081425 -16.6756568 58.91862613 C-16.67775308 53.73323124 -16.68957122 48.5482939 -16.72529602 43.36301231 C-16.75825156 38.4848234 -16.76257263 33.60743612 -16.74501801 28.72917557 C-16.7434769 26.94053946 -16.752168 25.1518603 -16.77193451 23.36333275 C-16.93006739 8.1614879 -16.93006739 8.1614879 -13.11022949 3.55744934 C-8.54477993 -0.06462926 -5.64348216 -0.02576092 0 0 Z " fill="#69D6BD" transform="translate(69.02978515625,178.886474609375)"/>
<path d="M0 0 C1.55692062 -0.00642769 1.55692062 -0.00642769 3.14529419 -0.01298523 C5.33562492 -0.01871456 7.52597468 -0.01923912 9.71630859 -0.01489258 C13.05209115 -0.01173599 16.3869834 -0.03519832 19.72265625 -0.06054688 C21.85676972 -0.06282047 23.99088556 -0.06352309 26.125 -0.0625 C27.1148288 -0.07170975 28.10465759 -0.08091949 29.1244812 -0.09040833 C38.02176401 -0.03151588 44.78848459 1.89395334 51.1953125 8.30078125 C54.84700261 13.78692889 54.54894764 18.83912239 54.3828125 25.17578125 C54.3209375 28.51703125 54.2590625 31.85828125 54.1953125 35.30078125 C63.4353125 35.30078125 72.6753125 35.30078125 82.1953125 35.30078125 C82.1334375 32.68140625 82.0715625 30.06203125 82.0078125 27.36328125 C81.93887214 13.09262734 81.93887214 13.09262734 86.9296875 7.28125 C94.13209999 0.4277916 101.33664461 -0.00899515 110.87890625 0 C111.89324234 -0.00428513 112.90757843 -0.00857025 113.95265198 -0.01298523 C116.08992774 -0.01870775 118.22722296 -0.01924418 120.36450195 -0.01489258 C123.61899287 -0.01173217 126.87257433 -0.03522001 130.12695312 -0.06054688 C132.21093636 -0.06282016 134.29492202 -0.06352323 136.37890625 -0.0625 C137.34372421 -0.07170975 138.30854218 -0.08091949 139.30259705 -0.09040833 C148.12007265 -0.03056569 154.85261186 1.95808061 161.1953125 8.30078125 C163.94569922 12.9479864 165.33370764 17.03262296 165.29296875 22.41015625 C165.28974609 23.16425781 165.28652344 23.91835937 165.28320312 24.6953125 C165.27482422 25.47261719 165.26644531 26.24992187 165.2578125 27.05078125 C165.25330078 27.84355469 165.24878906 28.63632813 165.24414062 29.453125 C165.23239815 31.40237633 165.21446396 33.35158863 165.1953125 35.30078125 C166.47460129 35.29411942 167.75389008 35.28745758 169.07194519 35.28059387 C181.1228839 35.21980186 193.17379154 35.17481771 205.22484875 35.14534473 C211.42055332 35.12968306 217.6161342 35.10843532 223.81176758 35.07446289 C229.7899173 35.0418878 235.76794796 35.02393202 241.74617958 35.01614952 C244.02796618 35.01060272 246.30974619 34.99977133 248.59148216 34.98359108 C251.78533429 34.96184179 254.97869326 34.95881333 258.17260742 34.96020508 C259.59033195 34.94402634 259.59033195 34.94402634 261.03669739 34.92752075 C266.39948437 34.95283879 270.20583101 35.31129976 274.1953125 39.30078125 C274.65780292 43.30903156 274.67235398 45.54967169 272.48350811 48.99604511 C268.10991761 53.01679232 261.76434981 51.97984912 256.20918274 51.92655945 C254.85905047 51.93143921 253.50892465 51.93851721 252.15881413 51.94760352 C248.44947705 51.9662394 244.74079311 51.95379035 241.03147423 51.93633425 C237.03061469 51.9229654 233.02985608 51.93843987 229.02900696 51.95050049 C222.09529367 51.96753454 215.16177143 51.96651889 208.22805214 51.95349693 C198.19218682 51.93485104 188.15651948 51.94563738 178.1206614 51.9639735 C161.82399902 51.99313372 145.52739789 52.00147446 129.23071289 51.99536133 C113.42439068 51.98950344 97.61808907 51.98841999 81.81176758 51.99731445 C80.83900068 51.99785702 79.86623378 51.9983996 78.86398909 51.99895861 C68.23881922 52.00512802 57.61365452 52.01386871 46.9884901 52.02631092 C46.05392247 52.02740341 45.11935483 52.02849589 44.15646696 52.02962149 C40.41972013 52.0340413 36.68297342 52.03851538 32.9462271 52.0433471 C22.01493229 52.05745575 11.08370677 52.06350342 0.15240511 52.05481122 C-6.70871504 52.0496203 -13.56981225 52.05100811 -20.43093123 52.05751427 C-24.38757648 52.06095506 -28.34415029 52.06103567 -32.30078888 52.05228615 C-35.92736577 52.0442872 -39.5538215 52.04551502 -43.18039653 52.05385206 C-45.10440345 52.05587084 -47.02841304 52.04802522 -48.95240325 52.039756 C-63.47967817 52.09466332 -75.15698982 55.19525949 -86.02734375 65.33203125 C-89.29447403 68.95100632 -91.7298521 72.90030618 -93.8046875 77.30078125 C-94.13307082 77.96054522 -94.46145414 78.62030918 -94.79978848 79.30006599 C-98.88559402 88.70964343 -98.37542318 98.19530934 -98.33813477 108.25341797 C-98.34520168 110.26348501 -98.35394994 112.27354674 -98.36424255 114.28359985 C-98.38666058 119.71762025 -98.38381436 125.15134833 -98.37492108 130.58539724 C-98.3697946 135.13289443 -98.3771173 139.68033749 -98.38439316 144.2278291 C-98.40136843 154.96166769 -98.39785059 165.69536404 -98.38110352 176.42919922 C-98.36418687 187.4782084 -98.38001608 198.52682236 -98.4123264 209.57578838 C-98.43907456 219.08529377 -98.44628411 228.59467653 -98.43781132 238.10421574 C-98.43289709 243.77361584 -98.43501606 249.4427783 -98.45559883 255.11214828 C-98.47403788 260.44593442 -98.4678969 265.77915495 -98.44339943 271.11291122 C-98.43841747 273.06187665 -98.4418127 275.01088579 -98.45454788 276.95981598 C-98.5220212 288.17971397 -97.93101894 297.09167076 -92.8046875 307.30078125 C-91.37806531 310.15402562 -91.49434882 312.13532674 -91.8046875 315.30078125 C-93.3671875 318.17578125 -93.3671875 318.17578125 -95.8046875 320.30078125 C-99.3046875 320.86328125 -99.3046875 320.86328125 -102.8046875 320.30078125 C-106.04473444 317.60895518 -107.73592416 314.87540815 -109.4296875 311.05078125 C-110.03683594 309.71273437 -110.03683594 309.71273437 -110.65625 308.34765625 C-113.20638376 301.58199525 -114.10009914 295.54075897 -114.07211304 288.37788391 C-114.07664415 287.51450777 -114.08117526 286.65113162 -114.08584368 285.76159257 C-114.09843923 282.88698612 -114.09687044 280.01257033 -114.09521484 277.13793945 C-114.10120318 275.06920632 -114.10800943 273.00047542 -114.11557007 270.93174744 C-114.1332077 265.32407712 -114.13792455 259.71646789 -114.13920164 254.10877252 C-114.14062524 250.60096814 -114.14489884 247.09317919 -114.15019608 243.58537865 C-114.16869006 231.3353108 -114.17686761 219.08528642 -114.17529297 206.83520508 C-114.17409225 195.43698256 -114.19518261 184.0389496 -114.2267803 172.64077502 C-114.25298071 162.8383595 -114.26365866 153.03600574 -114.26238215 143.2335555 C-114.26187356 137.38639767 -114.26749968 131.53940832 -114.28873825 125.69228554 C-114.30818362 120.18873167 -114.30820201 114.6855059 -114.29370499 109.18194008 C-114.2916235 107.17007973 -114.29627811 105.1581985 -114.3084259 103.14637375 C-114.42238093 82.95483954 -110.31603595 66.89461233 -95.7265625 52.03125 C-80.41080925 37.71880144 -62.24157384 34.91809701 -42.0546875 35.17578125 C-40.66406904 35.18584408 -39.27344342 35.19496402 -37.8828125 35.203125 C-34.52324931 35.2264553 -31.16406575 35.25918895 -27.8046875 35.30078125 C-27.85109375 34.02203125 -27.8975 32.74328125 -27.9453125 31.42578125 C-27.98285777 29.71747146 -28.01925495 28.00913617 -28.0546875 26.30078125 C-28.08820313 25.46160156 -28.12171875 24.62242188 -28.15625 23.7578125 C-28.26508541 16.73792875 -26.65301564 11.66935197 -22.09375 6.27734375 C-21.54460937 5.83132812 -20.99546875 5.3853125 -20.4296875 4.92578125 C-19.88570313 4.46429688 -19.34171875 4.0028125 -18.78125 3.52734375 C-12.83220741 -0.16435462 -6.7664997 -0.00620503 0 0 Z " fill="#010101" transform="translate(113.8046875,89.69921875)"/>
<path d="M0 0 C0.89878876 -0.00029205 1.79757751 -0.00058411 2.72360229 -0.00088501 C5.65616961 0.00049393 8.58847388 0.01598662 11.52099609 0.03173828 C13.56936504 0.03547353 15.61773579 0.03831808 17.66610718 0.04031372 C23.02871733 0.04790989 28.39121725 0.06752347 33.75378418 0.08972168 C39.23737091 0.11026708 44.72097563 0.11933395 50.20458984 0.12939453 C60.94292704 0.1507735 71.68115386 0.18592249 82.41943359 0.22705078 C82.41943359 7.48705078 82.41943359 14.74705078 82.41943359 22.22705078 C181.74943359 22.22705078 281.07943359 22.22705078 383.41943359 22.22705078 C383.41943359 22.55705078 383.41943359 22.88705078 383.41943359 23.22705078 C382.1904611 23.22737683 382.1904611 23.22737683 380.93666089 23.22770947 C332.37812462 23.24122512 283.81966863 23.28070526 235.26118375 23.3539064 C229.43079595 23.36267316 223.60040785 23.37122297 217.77001953 23.37963867 C216.60929349 23.38131773 215.44856745 23.3829968 214.25266789 23.38472674 C195.45799337 23.41139703 176.66334934 23.42049184 157.86865784 23.42309221 C138.58377526 23.42615158 119.29898086 23.4480965 100.0141381 23.48757535 C88.11419747 23.51134094 76.21443287 23.52037325 64.31447177 23.51056389 C56.15437982 23.50524845 47.99444562 23.51827624 39.83439858 23.54571369 C35.126326 23.56100294 30.41860649 23.56821853 25.71052361 23.55364799 C21.39702784 23.54047737 17.08421566 23.55042827 12.77079676 23.57848851 C11.21343838 23.58458864 9.65601909 23.58232605 8.09869231 23.57068004 C-1.80283496 23.50244966 -10.16811778 24.18269561 -17.71544731 31.21674126 C-23.7010754 37.47694433 -26.04044442 43.65189717 -25.96824646 52.25263977 C-25.973632 53.03152359 -25.97901754 53.8104074 -25.98456627 54.61289376 C-25.99880653 57.20750607 -25.99175194 59.80160536 -25.98461914 62.39624023 C-25.99032485 64.26280119 -25.99728989 66.12935866 -26.00541687 67.99591064 C-26.02334336 73.05597396 -26.02218056 78.11586381 -26.01647449 83.17594934 C-26.0133812 87.40539933 -26.01947681 91.63481607 -26.02551323 95.86426133 C-26.03955585 105.84614057 -26.03799999 115.82793422 -26.02661133 125.80981445 C-26.01513655 136.09417408 -26.02919568 146.37827273 -26.0560078 156.66259795 C-26.07819079 165.50360519 -26.08479613 174.34453066 -26.07893139 183.18556374 C-26.07556609 188.46086798 -26.07794826 193.73600504 -26.09518242 199.01128578 C-26.11069032 203.97477459 -26.10665332 208.93787813 -26.08787727 213.90135193 C-26.08420171 215.71773392 -26.0872696 217.5341447 -26.09776306 219.35050011 C-26.35202289 232.83110904 -26.35202289 232.83110904 -21.58056641 245.22705078 C-21.04109595 245.76387136 -20.5016255 246.30069193 -19.94580746 246.85377979 C-18.58056641 248.22705078 -18.58056641 248.22705078 -18.58056641 250.22705078 C-17.7124692 250.65736414 -17.7124692 250.65736414 -16.82683468 251.0963707 C-15.43080378 251.79907587 -14.04489531 252.52278624 -12.67665195 253.27817154 C-6.02941464 256.67220531 0.01107239 256.80425484 7.37475586 256.77294922 C8.64403427 256.7832869 9.91331268 256.79362457 11.22105408 256.80427551 C14.67504458 256.83196496 18.12867572 256.83554402 21.58276105 256.83455563 C25.20230341 256.83769955 28.8216874 256.86334827 32.44114685 256.88653564 C39.28320999 256.92698658 46.12517809 256.94741056 52.96734232 256.96050954 C60.76192535 256.97641672 68.55634749 257.01484783 76.35083687 257.05510283 C92.37366021 257.13735236 108.39643952 257.19073873 124.41943359 257.22705078 C124.41943359 264.81705078 124.41943359 272.40705078 124.41943359 280.22705078 C106.53010105 280.27336274 88.6407891 280.30904723 70.75140953 280.33067513 C62.44492933 280.34098456 54.13848709 280.35503855 45.83203125 280.37792969 C38.5915247 280.39787373 31.35104563 280.41076964 24.11051238 280.41522777 C20.2772574 280.41783343 16.44408105 280.42395096 12.61085129 280.43851089 C9.00103127 280.45211083 5.39132209 280.45626855 1.78147888 280.45326614 C-0.17115697 280.45407654 -2.12378083 280.46482556 -4.0763855 280.47589111 C-5.24578674 280.47314178 -6.41518799 280.47039246 -7.62002563 280.46755981 C-8.63215433 280.4694034 -9.64428303 280.47124699 -10.68708229 280.47314644 C-13.90508721 280.19944974 -16.54278083 279.29476364 -19.58056641 278.22705078 C-24.3958522 277.67558623 -24.3958522 277.67558623 -28.51806641 279.72705078 C-28.86869141 280.22205078 -29.21931641 280.71705078 -29.58056641 281.22705078 C-35.89649672 279.25332256 -42.07953067 274.89215715 -45.58056641 269.22705078 C-44.76806641 266.85205078 -44.76806641 266.85205078 -43.58056641 264.22705078 C-43.21026647 259.63022401 -43.97756069 256.70618409 -46.01806641 252.60205078 C-49.03218095 246.47077504 -49.72934778 241.8333769 -49.72773743 234.99949646 C-49.73141411 234.1626282 -49.7350908 233.32575994 -49.73887891 232.46353203 C-49.74990594 229.65479966 -49.75375796 226.84610429 -49.75756836 224.03735352 C-49.76383384 222.02507917 -49.77048071 220.01280598 -49.77748108 218.00053406 C-49.7985169 211.38724574 -49.80888421 204.7739572 -49.81884766 198.16064453 C-49.82289563 195.88255361 -49.82701257 193.60446282 -49.83119774 191.32637215 C-49.85024972 180.62148303 -49.86447977 169.91660081 -49.87280971 159.211698 C-49.8825773 146.86364645 -49.90888445 134.51577438 -49.9493106 122.16778606 C-49.9794984 112.6185664 -49.99428119 103.0693981 -49.99759072 93.52013165 C-49.99993849 87.81940024 -50.00886339 82.11886059 -50.0340519 76.41818047 C-50.05738357 71.05094679 -50.06154525 65.68403041 -50.05129051 60.31675911 C-50.05079626 58.35243294 -50.05708403 56.38809088 -50.07084656 54.42381287 C-50.19702877 35.33825905 -50.19702877 35.33825905 -45.58056641 26.22705078 C-45.13547887 25.33796241 -44.69039133 24.44887403 -44.23181629 23.53284359 C-39.05239018 13.66791675 -30.1379696 5.87815272 -19.58056641 2.22705078 C-13.00350276 0.60392602 -6.75923696 -0.05896124 0 0 Z " fill="#7B92DB" transform="translate(64.58056640625,140.77294921875)"/>
<path d="M0 0 C7.29147276 4.60299677 12.07935319 9.74659565 14.63079834 18.0617218 C15.21329213 20.88461584 15.24061266 23.53528893 15.25878906 26.41870117 C15.26839661 27.6506572 15.27800415 28.88261322 15.28790283 30.15190125 C15.29275257 31.49449477 15.29703097 32.83709046 15.30078125 34.1796875 C15.30502232 35.19991218 15.30502232 35.19991218 15.30934906 36.24074745 C15.3243213 39.8432008 15.33356192 43.44561433 15.33789062 47.0480957 C15.34335876 50.74880776 15.36735683 54.44914881 15.39586258 58.14974499 C15.41459784 61.01271077 15.4197004 63.87558934 15.4212265 66.73861122 C15.42568211 68.75971885 15.44427824 70.78077958 15.4631958 72.80180359 C15.43793928 83.30228617 14.10570597 92.07094252 6.56640625 99.91796875 C-0.14218663 106.13866397 -6.76717585 107.99853636 -15.875 107.734375 C-24.1253121 106.61659078 -30.91501601 101.85081787 -35.90234375 95.32421875 C-40.51269971 87.28739681 -40.50854998 79.08280636 -40.46875 70.04296875 C-40.47399836 68.57905689 -40.48027923 67.11514841 -40.48753357 65.65124512 C-40.49788214 62.5985511 -40.49345639 59.54632485 -40.47875977 56.49365234 C-40.46156599 52.60673967 -40.48510157 48.72130464 -40.52024937 44.83455658 C-40.54234343 41.81620737 -40.54075347 38.7982054 -40.53248405 35.77980042 C-40.53167134 34.34784828 -40.5384029 32.91586887 -40.55325508 31.48399353 C-40.64956504 20.52283418 -39.0096508 12.74624726 -31.65234375 4.44921875 C-22.78858093 -3.61394614 -10.80841757 -5.59056081 0 0 Z " fill="#8CDFDE" transform="translate(398.90234375,222.67578125)"/>
<path d="M0 0 C6.75230906 4.74516065 11.60729421 10.10797752 13.529953 18.24203491 C14.0398807 21.23399698 14.14873999 24.0494996 14.17700195 27.08447266 C14.19625481 28.89257919 14.19625481 28.89257919 14.21589661 30.73721313 C14.22328354 32.03307343 14.23067047 33.32893372 14.23828125 34.6640625 C14.24235678 35.32976635 14.2464323 35.9954702 14.25063133 36.68134689 C14.27144149 40.20829704 14.28576228 43.73520892 14.29516602 47.26220703 C14.30619197 50.87649401 14.34056111 54.49015884 14.38033772 58.10422707 C14.40668449 60.90808124 14.41487388 63.71179149 14.41844749 66.51575851 C14.42559241 68.48696473 14.45195387 70.45807181 14.47883606 72.42910767 C14.45304313 83.22316187 12.55149042 92.33593249 4.9375 100.34375 C-1.45507299 105.80836885 -8.55196523 107.42946233 -16.796875 107.33984375 C-24.15995008 106.55863944 -30.54359388 102.57387234 -35.41749573 97.07092285 C-41.66644327 88.89332202 -41.60993298 79.60505164 -41.56640625 69.71875 C-41.57165461 68.25483814 -41.57793548 66.79092966 -41.58518982 65.32702637 C-41.59553839 62.27433235 -41.59111264 59.2221061 -41.57641602 56.16943359 C-41.55922224 52.28252092 -41.58275782 48.39708589 -41.61790562 44.51033783 C-41.63999968 41.49198862 -41.63840972 38.47398665 -41.6301403 35.45558167 C-41.62932759 34.02362953 -41.63605915 32.59165012 -41.65091133 31.15977478 C-41.74722669 20.1980009 -40.10684253 12.42279333 -32.75 4.125 C-23.65112905 -4.16987589 -10.97735083 -5.8298897 0 0 Z " fill="#8CDFDE" transform="translate(289,223)"/>
<path d="M0 0 C0.93050171 -0.00700928 1.86100342 -0.01401855 2.81970215 -0.02124023 C5.89572993 -0.03884649 8.97083785 -0.02718794 12.046875 -0.01367188 C14.18392107 -0.01636603 16.32096594 -0.0202478 18.45800781 -0.02526855 C22.93696767 -0.03116718 27.41560847 -0.02258871 31.89453125 -0.00390625 C37.63829952 0.01888325 43.3813202 0.00576216 49.12506104 -0.01819611 C53.53798057 -0.03264409 57.9507226 -0.02805263 62.36364746 -0.01768494 C64.48156828 -0.0150149 66.59950517 -0.01829712 68.71740723 -0.02760315 C71.67662295 -0.03775205 74.63462479 -0.02229048 77.59375 0 C78.47075562 -0.00809692 79.34776123 -0.01619385 80.25134277 -0.02453613 C84.08193044 0.0289717 86.14485681 0.05965886 89.33872986 2.30274963 C91.60582371 5.74631908 91.38749735 9.27598048 91.36328125 13.26367188 C91.36947983 14.11179947 91.37567841 14.95992706 91.38206482 15.83375549 C91.38915875 17.62491713 91.38599635 19.41614477 91.37329102 21.20727539 C91.35943714 23.94280885 91.39348359 26.67491234 91.43164062 29.41015625 C91.43259199 31.15299563 91.43073204 32.89583927 91.42578125 34.63867188 C91.43903946 35.45339462 91.45229767 36.26811737 91.46595764 37.10752869 C91.44715797 38.25881004 91.44715797 38.25881004 91.42797852 39.43334961 C91.42701675 40.10301254 91.42605499 40.77267548 91.42506409 41.46263123 C90.36732744 44.92272419 88.66317072 46.35614069 85.796875 48.51757812 C82.75381107 49.23609261 79.79547706 49.20151478 76.6796875 49.16455078 C75.7701532 49.17331238 74.8606189 49.18207397 73.92352295 49.19110107 C70.92248574 49.213075 67.92292671 49.19854928 64.921875 49.18164062 C62.83349322 49.18500933 60.74511335 49.1898624 58.65673828 49.19613647 C54.28203649 49.2035051 49.9078455 49.1928023 45.53320312 49.16943359 C39.92729027 49.1409462 34.32257427 49.15735017 28.71670532 49.18729591 C24.40493766 49.20536893 20.09345348 49.19961075 15.78167725 49.18665695 C13.71482196 49.18332297 11.64794089 49.18740972 9.58111572 49.19905472 C6.69140517 49.21176321 3.80362905 49.19238614 0.9140625 49.16455078 C0.06092468 49.17467194 -0.79221313 49.18479309 -1.67120361 49.19522095 C-5.95125494 49.11889077 -7.71166499 48.88818192 -11.23350525 46.23240662 C-13.13767497 43.60779128 -13.82970074 42.58598778 -13.83422852 39.43334961 C-13.84676163 38.6658287 -13.85929474 37.8983078 -13.87220764 37.10752869 C-13.85894943 36.29280594 -13.84569122 35.47808319 -13.83203125 34.63867188 C-13.83444321 33.78958755 -13.83685516 32.94050323 -13.83934021 32.06568909 C-13.8383634 30.27624832 -13.82500935 28.48677671 -13.80004883 26.69750977 C-13.76568749 23.96005663 -13.77940944 21.2258241 -13.79882812 18.48828125 C-13.79193068 16.74673107 -13.78225921 15.0051892 -13.76953125 13.26367188 C-13.77449112 12.4469249 -13.77945099 11.63017792 -13.78456116 10.78868103 C-13.71647535 7.50239871 -13.5768247 5.08520389 -11.74497986 2.30274963 C-7.94392832 -0.366769 -4.54265484 -0.0419399 0 0 Z " fill="#E99EA8" transform="translate(217.203125,385.482421875)"/>
<path d="M0 0 C8.7463853 6.95664454 13.29832991 16.29096191 16 27 C16.26742554 30.29788208 16.26742554 30.29788208 16.29052734 33.73876953 C16.30328705 35.0376712 16.31604675 36.33657288 16.32919312 37.67483521 C16.33225243 39.07749277 16.3344793 40.48015236 16.3359375 41.8828125 C16.34237756 43.34382249 16.34910678 44.80483123 16.35610962 46.26583862 C16.36805051 49.32374046 16.37179402 52.38152964 16.37060547 55.43945312 C16.37040308 59.32255015 16.39763535 63.2049087 16.43214989 67.0878315 C16.45459925 70.1062438 16.45843747 73.12448388 16.45738602 76.14297104 C16.45971766 77.57245285 16.46840053 79.00194123 16.48405075 80.43133926 C16.61587388 93.72081812 14.53396445 105.48235374 6 116 C5.49855469 116.62519531 4.99710937 117.25039063 4.48046875 117.89453125 C-3.09982095 126.36011025 -13.94419557 130.23127618 -24.98828125 131.28515625 C-36.92890712 131.84286213 -46.85550229 127.96930869 -55.8515625 120.15234375 C-65.58546409 110.40074415 -69.6299056 97.72948892 -69.66908264 84.16233826 C-69.6568123 82.72149676 -69.64339197 81.28066467 -69.62890625 79.83984375 C-69.62973784 78.31775239 -69.63220812 76.79566114 -69.63621521 75.27357483 C-69.63905103 72.10585027 -69.62459097 68.93884143 -69.59692383 65.77124023 C-69.56281467 61.74462849 -69.5688899 57.71929154 -69.5875864 53.69261837 C-69.598237 50.55666278 -69.58914677 47.4209955 -69.57420158 44.2850666 C-69.56908012 42.80176211 -69.5694267 41.31842675 -69.57574654 39.83512688 C-69.61431021 25.35474624 -66.77423499 14.00493246 -57 3 C-54.49517593 0.66507678 -51.9257265 -1.22735394 -49 -3 C-48.36320312 -3.38800781 -47.72640625 -3.77601563 -47.0703125 -4.17578125 C-31.60182603 -12.71761615 -13.92786412 -10.02349565 0 0 Z M-50 18 C-54.86123314 25.53842382 -54.58811237 33.4915525 -54.53125 42.18359375 C-54.53395106 43.64893348 -54.53783856 45.11427144 -54.54284668 46.5796051 C-54.54871489 49.6382874 -54.54026772 52.69649969 -54.52148438 55.75512695 C-54.49871594 59.64974956 -54.51182043 63.54326795 -54.53577423 67.43785 C-54.55032291 70.4604758 -54.54558481 73.48284573 -54.53526306 76.50547981 C-54.53261965 77.9402079 -54.53578025 79.37496023 -54.54518127 80.80965996 C-54.59466153 90.48195508 -53.85894772 98.52971436 -48.17578125 106.5859375 C-41.73629157 112.76892759 -36.05802125 116.13216157 -27 116.5 C-18.33921522 116.15928385 -12.03796507 112.833647 -5.7265625 107 C-0.58568784 101.04495967 1.11193797 93.67334315 1.16113281 85.99731445 C1.17074036 84.78537918 1.1803479 83.57344391 1.19024658 82.32478333 C1.19449646 81.01748764 1.19874634 79.71019196 1.203125 78.36328125 C1.20595238 77.69416403 1.20877975 77.02504681 1.21169281 76.33565331 C1.22666432 72.79155459 1.23590538 69.24749634 1.24023438 65.70336914 C1.24570209 62.06318852 1.26969943 58.42338514 1.29820633 54.78332233 C1.31694457 51.96667953 1.32204431 49.15012536 1.32357025 46.33342552 C1.32802467 44.34555589 1.34661937 42.35773392 1.36553955 40.36994934 C1.33989733 29.88017269 -0.0843491 21.30179 -7.49609375 13.40625 C-13.30996553 7.92805211 -19.52987772 5.92382179 -27.4375 5.5 C-36.81954366 5.80180001 -44.298884 10.77187786 -50 18 Z " fill="#020303" transform="translate(302,214)"/>
<path d="M0 0 C9.24652333 7.65028141 15.62536336 17.2156101 17.625 29.1875 C17.94841079 34.08221932 17.98005379 38.9752216 17.99609375 43.87890625 C18.00508388 45.31127503 18.01420606 46.74364299 18.02345276 48.17601013 C18.03987962 51.17245751 18.04763049 54.16879407 18.05053711 57.1652832 C18.05589498 60.96199266 18.09349264 64.75762507 18.13928127 68.55403233 C18.16937546 71.51333687 18.17626767 74.47239301 18.17726326 77.43183708 C18.18140679 78.82898799 18.19359761 80.22614388 18.21478081 81.62314034 C18.39817305 94.77000674 16.12538193 108.3834529 6.625 118.1875 C5.97789062 118.87328125 5.33078125 119.5590625 4.6640625 120.265625 C-4.97468019 129.66078935 -16.68555874 132.67356995 -29.8671875 132.5234375 C-41.10781717 131.44694067 -50.99703381 125.62247466 -58.18359375 117.0234375 C-64.27535258 108.42509462 -67.4612674 99.182611 -67.55200195 88.67578125 C-67.56483719 87.37672852 -67.57767242 86.07767578 -67.59089661 84.73925781 C-67.59906925 83.32617581 -67.60651197 81.91308942 -67.61328125 80.5 C-67.61735678 79.78162964 -67.6214323 79.06325928 -67.62563133 78.32312012 C-67.64645323 74.51505833 -67.66076739 70.70703207 -67.67016602 66.89892578 C-67.68117702 63.00012067 -67.71552549 59.10189469 -67.75533772 55.20329285 C-67.78171796 52.17632115 -67.78987695 49.14948249 -67.79344749 46.12240601 C-67.79826441 44.68732831 -67.80973518 43.25225454 -67.82848549 41.81729126 C-68.00512295 27.39412724 -65.42842548 14.99745415 -55.375 4.1875 C-49.34810263 -1.17270518 -43.2602007 -4.99765222 -35.375 -6.8125 C-34.446875 -7.039375 -33.51875 -7.26625 -32.5625 -7.5 C-20.39816478 -8.69258188 -10.23979773 -7.21530149 0 0 Z M-46.7923584 17.1806488 C-53.06061808 25.12904623 -52.97012363 33.60730516 -52.90625 43.37109375 C-52.90895106 44.83643348 -52.91283856 46.30177144 -52.91784668 47.7671051 C-52.92371489 50.8257874 -52.91526772 53.88399969 -52.89648438 56.94262695 C-52.87371594 60.83724956 -52.88682043 64.73076795 -52.91077423 68.62535 C-52.92532291 71.6479758 -52.92058481 74.67034573 -52.91026306 77.69297981 C-52.90761965 79.1277079 -52.91078025 80.56246023 -52.92018127 81.99715996 C-52.96966153 91.66945508 -52.23394772 99.71721436 -46.55078125 107.7734375 C-40.11129157 113.95642759 -34.43302125 117.31966157 -25.375 117.6875 C-16.65664573 117.34451906 -10.43475004 113.99620223 -4.1015625 108.1171875 C1.40557723 101.96214898 2.72834098 95.06110569 2.80200195 86.99536133 C2.81483719 85.76670853 2.82767242 84.53805573 2.84089661 83.27217102 C2.84906698 81.93796192 2.85651014 80.60374819 2.86328125 79.26953125 C2.86735678 78.59154669 2.8714323 77.91356213 2.87563133 77.21503258 C2.89643976 73.62439664 2.91076241 70.03379829 2.92016602 66.44311523 C2.93120348 62.75923358 2.96558666 59.07596039 3.00533772 55.39229298 C3.03164875 52.53786702 3.03987068 49.68358277 3.04344749 46.82904625 C3.05060701 44.81846336 3.07698232 42.80797794 3.10383606 40.79756165 C3.07861526 30.06969388 0.99597095 21.80900995 -6.4375 13.87890625 C-12.76982271 8.35089066 -19.9485494 6.75827228 -28.171875 6.84765625 C-35.59259036 7.63497605 -41.89125138 11.64149601 -46.7923584 17.1806488 Z " fill="#020303" transform="translate(411.375,212.8125)"/>
<path d="M0 0 C1.02758423 -0.01051392 1.02758423 -0.01051392 2.07592773 -0.02124023 C4.33562012 -0.0388142 6.59405511 -0.02719975 8.85375977 -0.01367188 C10.42790466 -0.01636731 12.00204793 -0.02025016 13.57618713 -0.02526855 C16.87403223 -0.031163 20.17144365 -0.02260401 23.46923828 -0.00390625 C27.69067957 0.01886509 31.91110258 0.00577228 36.13250637 -0.01819611 C39.38311898 -0.03267188 42.63349144 -0.02803974 45.8841114 -0.01768494 C47.44019759 -0.01502157 48.99630576 -0.01827373 50.55236626 -0.02760315 C52.73080779 -0.03779669 54.90761712 -0.02223102 57.0859375 0 C58.324077 0.00318237 59.56221649 0.00636475 60.83787537 0.00964355 C64.72446653 0.61339292 66.39325583 1.70869498 69.10766602 4.51757812 C70.64433253 11.91761464 66.99382346 18.09570178 63.87026978 24.64855957 C62.55972929 27.39904026 61.28353255 30.16504008 60.00480652 32.93041992 C59.34144573 34.36429829 58.67640209 35.79739925 58.00971985 37.22973633 C54.85241766 44.02223456 51.87170866 50.88302058 48.92016602 57.76757812 C42.64832989 72.33633529 36.23961944 86.84346964 29.81787109 101.34667969 C29.23659203 102.66001282 29.23659203 102.66001282 28.64356995 103.99987793 C27.88200988 105.71945232 27.11952551 107.43861768 26.35606384 109.15734863 C24.57194969 113.17916071 22.80675 117.20697002 21.0871582 121.25683594 C20.77148895 121.99535797 20.4558197 122.73388 20.13058472 123.49478149 C19.54609003 124.86569222 18.96730824 126.23905944 18.39553833 127.61532593 C15.86729115 133.52742122 15.86729115 133.52742122 13.10766602 135.51757812 C9.21261811 136.0133115 7.01272884 136.09774661 3.67016602 133.95507812 C1.53323655 130.62146816 1.84299648 128.43807578 2.10766602 124.51757812 C3.12304688 121.49609375 3.12304688 121.49609375 4.57250977 118.42382812 C5.11625244 117.24949219 5.65999512 116.07515625 6.22021484 114.86523438 C6.66417099 113.9296167 6.66417099 113.9296167 7.11709595 112.97509766 C8.74876146 109.53352873 10.33404296 106.07048782 11.92797852 102.61132812 C12.2679335 101.87688477 12.60788849 101.14244141 12.95814514 100.38574219 C16.91341846 91.82178742 20.66727233 83.17163247 24.42016602 74.51757812 C25.12625161 72.89243945 25.83246963 71.26735831 26.53881836 69.64233398 C27.97992205 66.32620902 29.42003105 63.00965425 30.85961914 59.69287109 C34.40347063 51.53081867 37.96230285 43.37528944 41.51937866 35.21899414 C43.3422922 31.03879899 45.16441395 26.85825877 46.98657227 22.67773438 C47.59667573 21.27807445 48.20678271 19.87841605 48.81689453 18.47875977 C49.24284912 17.50156982 49.66880371 16.52437988 50.10766602 15.51757812 C49.40244812 15.52423996 48.69723022 15.53090179 47.97064209 15.5377655 C41.32023403 15.59791036 34.66990202 15.64356955 28.01928329 15.67301464 C24.6002211 15.68866171 21.18138389 15.70988183 17.76245117 15.74389648 C13.8306753 15.78276797 9.89899012 15.79729534 5.96704102 15.81054688 C4.1278006 15.83377266 4.1278006 15.83377266 2.25140381 15.85746765 C0.5400827 15.85780754 0.5400827 15.85780754 -1.20581055 15.8581543 C-2.20952698 15.86481613 -3.21324341 15.87147797 -4.24737549 15.87834167 C-7.35281209 15.45477044 -8.71504058 14.75848859 -10.89233398 12.51757812 C-11.76357605 5.65654687 -11.76357605 5.65654687 -9.28990173 2.42272949 C-6.07307383 -0.13342104 -4.08268735 0.01050042 0 0 Z " fill="#010303" transform="translate(94.892333984375,205.482421875)"/>
<path d="M0 0 C16.83 0 33.66 0 51 0 C51 16 51 16 47 21 C41.86818884 23.56590558 33.74721833 22.31343912 28.03393555 22.35009766 C26.14155781 22.36665332 24.2492425 22.39393835 22.35717773 22.43212891 C19.62711186 22.48694472 16.8985111 22.50877818 14.16796875 22.5234375 C12.9036628 22.55744156 12.9036628 22.55744156 11.61381531 22.59213257 C10.81981827 22.58928253 10.02582123 22.5864325 9.20776367 22.58349609 C8.51430344 22.59158295 7.8208432 22.5996698 7.10636902 22.60800171 C5 22 5 22 0 17 C0 11.39 0 5.78 0 0 Z " fill="#4C545E" transform="translate(388,436)"/>
<path d="M0 0 C16.83 0 33.66 0 51 0 C51 5.61 51 11.22 51 17 C45.37326795 22.62673205 45.37326795 22.62673205 41.74804688 22.6628418 C40.5415448 22.69132454 40.5415448 22.69132454 39.31066895 22.72038269 C38.45533569 22.71339859 37.60000244 22.70641449 36.71875 22.69921875 C35.3820929 22.70995171 35.3820929 22.70995171 34.01843262 22.72090149 C32.13908893 22.72866729 30.25965481 22.72369004 28.38037109 22.70678711 C25.50835769 22.68755596 22.64118158 22.72696076 19.76953125 22.77148438 C17.94010129 22.77177474 16.11066691 22.76863458 14.28125 22.76171875 C12.99825012 22.78464241 12.99825012 22.78464241 11.68933105 22.80802917 C10.88499634 22.7923439 10.08066162 22.77665863 9.25195312 22.76049805 C8.54977661 22.75874069 7.8476001 22.75698334 7.12414551 22.75517273 C5 22 5 22 0 16 C0 10.72 0 5.44 0 0 Z " fill="#4C545E" transform="translate(73,436)"/>
<path d="M0 0 C0.9343689 -0.00630432 1.86873779 -0.01260864 2.8314209 -0.019104 C4.34862732 -0.01303131 4.34862732 -0.01303131 5.89648438 -0.00683594 C6.93212524 -0.00874939 7.96776611 -0.01066284 9.03479004 -0.01263428 C11.22713463 -0.01399691 13.41948726 -0.01029508 15.61181641 -0.00195312 C18.97642054 0.00874514 22.34049069 -0.00184597 25.70507812 -0.01464844 C27.83138139 -0.01332686 29.95768433 -0.01076449 32.08398438 -0.00683594 C33.09545532 -0.0108844 34.10692627 -0.01493286 35.14904785 -0.019104 C36.08341675 -0.01279968 37.01778564 -0.00649536 37.98046875 0 C39.21718323 0.00238678 39.21718323 0.00238678 40.47888184 0.00482178 C42.49023438 0.25878906 42.49023438 0.25878906 44.49023438 2.25878906 C44.49023438 8.19878906 44.49023438 14.13878906 44.49023438 20.25878906 C27.66023438 20.25878906 10.83023438 20.25878906 -6.50976562 20.25878906 C-6.50976562 0.01256343 -6.50976562 0.01256343 0 0 Z " fill="#F3EB84" transform="translate(218.509765625,105.7412109375)"/>
<path d="M0 0 C0.9343689 -0.00630432 1.86873779 -0.01260864 2.8314209 -0.019104 C4.34862732 -0.01303131 4.34862732 -0.01303131 5.89648438 -0.00683594 C6.93212524 -0.00874939 7.96776611 -0.01066284 9.03479004 -0.01263428 C11.22713463 -0.01399691 13.41948726 -0.01029508 15.61181641 -0.00195312 C18.97642054 0.00874514 22.34049069 -0.00184597 25.70507812 -0.01464844 C27.83138139 -0.01332686 29.95768433 -0.01076449 32.08398438 -0.00683594 C33.09545532 -0.0108844 34.10692627 -0.01493286 35.14904785 -0.019104 C36.08341675 -0.01279968 37.01778564 -0.00649536 37.98046875 0 C39.21718323 0.00238678 39.21718323 0.00238678 40.47888184 0.00482178 C42.49023438 0.25878906 42.49023438 0.25878906 44.49023438 2.25878906 C44.49023438 8.19878906 44.49023438 14.13878906 44.49023438 20.25878906 C27.66023438 20.25878906 10.83023438 20.25878906 -6.50976562 20.25878906 C-6.50976562 0.01256343 -6.50976562 0.01256343 0 0 Z " fill="#EA9EA8" transform="translate(108.509765625,105.7412109375)"/>
<path d="M0 0 C1.9375 1.0625 1.9375 1.0625 3 3 C3.63704128 6.75854354 4.05456894 9.38006294 1.9284668 12.64599609 C-4.11628922 19.27177617 -10.45731373 25.60802316 -16.80834961 31.9387207 C-18.82849057 33.95344771 -20.84316383 35.97353385 -22.85742188 37.99414062 C-24.14030401 39.2763629 -25.42349581 40.55827545 -26.70703125 41.83984375 C-27.3090889 42.44392563 -27.91114655 43.04800751 -28.53144836 43.6703949 C-33.77750194 48.88680573 -33.77750194 48.88680573 -38.375 49.3125 C-42 49 -42 49 -44.4375 47.5 C-46.19287763 44.69139579 -46.6267677 42.54614705 -46.54730225 39.24093628 C-45.38549649 34.48390726 -41.41251878 31.43287003 -37.9765625 28.16015625 C-36.75179703 26.94881264 -36.75179703 26.94881264 -35.50228882 25.71299744 C-32.89471116 23.14349694 -30.26039461 20.60342999 -27.625 18.0625 C-25.85760726 16.32666784 -24.09196038 14.58905616 -22.328125 12.84960938 C-19.10348908 9.68344553 -15.87509628 6.521584 -12.62353516 3.38305664 C-11.97067535 2.75210587 -11.31781555 2.12115509 -10.64517212 1.47108459 C-7.08934022 -1.70847909 -4.5269037 -0.95303236 0 0 Z " fill="#000000" transform="translate(451,46)"/>
<path d="M0 0 C2.58455285 1.89533875 2.96275506 2.88826517 4 6 C4.10888511 8.67290063 4.16403524 11.31893311 4.16796875 13.9921875 C4.17129715 14.77514191 4.17462555 15.55809631 4.17805481 16.36477661 C4.18311519 18.02068495 4.18546341 19.67660347 4.18530273 21.33251953 C4.1874858 23.85857066 4.20564117 26.38418257 4.22460938 28.91015625 C4.22754421 30.52083184 4.2295284 32.13150951 4.23046875 33.7421875 C4.23765427 34.49442596 4.24483978 35.24666443 4.25224304 36.021698 C4.22933358 41.31367214 3.81788404 45.18211596 0 49 C-2.05859375 49.30078125 -2.05859375 49.30078125 -4.4375 49.3125 C-5.61119141 49.33763672 -5.61119141 49.33763672 -6.80859375 49.36328125 C-9.55809583 48.90748144 -10.27896236 48.15713793 -12 46 C-12.39440918 44.03370667 -12.39440918 44.03370667 -12.41992188 41.77563477 C-12.43583374 40.92787979 -12.45174561 40.08012482 -12.46813965 39.2066803 C-12.46834106 38.29413986 -12.46854248 37.38159943 -12.46875 36.44140625 C-12.47636353 35.50070786 -12.48397705 34.56000946 -12.49182129 33.59080505 C-12.50262739 31.60117243 -12.50547333 29.61148306 -12.50097656 27.62182617 C-12.50000463 24.57699989 -12.54161143 21.53469637 -12.5859375 18.49023438 C-12.59114474 16.55729693 -12.59383269 14.62435071 -12.59375 12.69140625 C-12.61014526 11.78089005 -12.62654053 10.87037384 -12.64343262 9.93226624 C-12.57472078 3.64911141 -12.57472078 3.64911141 -9.68945312 0.39038086 C-6.01927612 -1.50701003 -3.92848121 -1.09124478 0 0 Z " fill="#000000" transform="translate(356,39)"/>
<path d="M0 0 C0.78012451 -0.0038269 1.56024902 -0.00765381 2.36401367 -0.01159668 C4.00798844 -0.01431005 5.65200681 -0.00698905 7.29589844 0.00976562 C9.80502023 0.03118614 12.31127922 0.00994727 14.8203125 -0.015625 C16.42188129 -0.01298162 18.0234483 -0.00785642 19.625 0 C20.37096436 -0.00809692 21.11692871 -0.01619385 21.88549805 -0.02453613 C25.51138558 0.04038223 27.66891961 0.44372626 30.7890625 2.34570312 C32.8125 4.53125 32.8125 4.53125 33.375 8.03125 C32.71005571 12.16868111 32.16590467 13.09741177 28.8125 15.53125 C25.83180487 15.92897619 23.22845697 16.09272059 20.25 16.0625 C19.00754517 16.06824036 19.00754517 16.06824036 17.73999023 16.07409668 C15.99168683 16.07681425 14.24334266 16.06946381 12.49511719 16.05273438 C9.82134223 16.03132082 7.15025404 16.05253944 4.4765625 16.078125 C2.77603575 16.07548169 1.07551066 16.07035665 -0.625 16.0625 C-1.82201538 16.07464539 -1.82201538 16.07464539 -3.04321289 16.08703613 C-6.60747106 16.02692121 -8.76490528 15.83796132 -11.6875 13.71679688 C-13.90959775 10.47913101 -13.80253281 8.3581208 -13.1875 4.53125 C-9.23874675 0.2661391 -5.53740616 -0.06010469 0 0 Z " fill="#040303" transform="translate(246.1875,401.46875)"/>
<path d="M0 0 C3.0625 0.5625 3.0625 0.5625 5.9375 2.4375 C8.52952882 6.24930708 8.7903056 8.64917349 8.546875 13.1796875 C8.0625 15.5625 8.0625 15.5625 5.9375 18.6875 C2.55068314 20.8962936 1.02389166 21.32106436 -2.9375 20.5625 C-5.74766371 18.39495086 -6.81685088 17.21542466 -7.46875 13.6875 C-7.4584375 12.65625 -7.448125 11.625 -7.4375 10.5625 C-7.4478125 9.53125 -7.458125 8.5 -7.46875 7.4375 C-6.62775995 2.88625974 -4.5063734 0.86292257 0 0 Z " fill="#050909" transform="translate(198.9375,287.4375)"/>
<path d="M0 0 C4.24925879 0.7804761 5.6047681 2.02047461 8.0625 5.5625 C8.87998195 10.29883872 8.65351096 14.43607513 6.0625 18.5625 C2.57125983 20.88999345 1.17027749 21.06549316 -2.9375 20.5625 C-5.76155865 18.40743174 -6.81663805 17.21657643 -7.46875 13.6875 C-7.4584375 12.65625 -7.448125 11.625 -7.4375 10.5625 C-7.4478125 9.53125 -7.458125 8.5 -7.46875 7.4375 C-6.62775995 2.88625974 -4.5063734 0.86292257 0 0 Z " fill="#050808" transform="translate(198.9375,241.4375)"/>
<path d="M0 0 C4.29 0 8.58 0 13 0 C13 7.26 13 14.52 13 22 C12.34 22 11.68 22 11 22 C9.40656153 19.6098423 7.93611266 17.23222667 6.5 14.75 C6.09652344 14.06808594 5.69304687 13.38617188 5.27734375 12.68359375 C0 3.71385107 0 3.71385107 0 0 Z " fill="#8DAEE1" transform="translate(176,399)"/>
</svg>
